<svg width="17" height="17" viewBox="0 0 17 17" fill="none" xmlns="http://www.w3.org/2000/svg">
<g clip-path="url(#clip0_541_7367)">
<path d="M13.248 12.7566C12.5143 11.4816 11.1363 10.625 9.5625 10.625H7.4375C5.86367 10.625 4.48574 11.4816 3.75195 12.7566C4.9207 14.0582 6.61406 14.875 8.5 14.875C10.3859 14.875 12.0793 14.0549 13.248 12.7566ZM0 8.5C0 6.24566 0.895533 4.08365 2.48959 2.48959C4.08365 0.895533 6.24566 0 8.5 0C10.7543 0 12.9163 0.895533 14.5104 2.48959C16.1045 4.08365 17 6.24566 17 8.5C17 10.7543 16.1045 12.9163 14.5104 14.5104C12.9163 16.1045 10.7543 17 8.5 17C6.24566 17 4.08365 16.1045 2.48959 14.5104C0.895533 12.9163 0 10.7543 0 8.5ZM8.5 9.03125C9.13403 9.03125 9.7421 8.77938 10.1904 8.33105C10.6388 7.88272 10.8906 7.27466 10.8906 6.64062C10.8906 6.00659 10.6388 5.39853 10.1904 4.9502C9.7421 4.50187 9.13403 4.25 8.5 4.25C7.86597 4.25 7.2579 4.50187 6.80957 4.9502C6.36124 5.39853 6.10938 6.00659 6.10938 6.64062C6.10938 7.27466 6.36124 7.88272 6.80957 8.33105C7.2579 8.77938 7.86597 9.03125 8.5 9.03125Z" fill="#2DB66D"/>
</g>
<defs>
<clipPath id="clip0_541_7367">
<rect width="17" height="17" fill="white"/>
</clipPath>
</defs>
</svg>
