<svg width="17" height="17" viewBox="0 0 17 17" fill="none" xmlns="http://www.w3.org/2000/svg">
<circle cx="8.5" cy="8.5" r="8.5" fill="#2DB66D"/>
<path d="M11.5414 9.90986L12.5758 10.9442C12.8101 11.1785 12.8101 11.5583 12.5758 11.7926C11.3092 13.0592 9.30403 13.2017 7.87105 12.127L7.78751 12.0643C6.70659 11.2536 5.74638 10.2934 4.93568 9.21249L4.87303 9.12895C3.79829 7.69597 3.9408 5.69078 5.20739 4.42419C5.44166 4.18992 5.8215 4.18992 6.05577 4.42419L7.09014 5.45856C7.4473 5.81572 7.4473 6.3948 7.09014 6.75197L6.42131 7.4208C6.264 7.57811 6.225 7.81842 6.32449 8.0174C6.89963 9.16767 7.83233 10.1004 8.9826 10.6755C9.18158 10.775 9.42189 10.736 9.5792 10.5787L10.248 9.90986C10.6052 9.5527 11.1843 9.5527 11.5414 9.90986Z" fill="#353839"/>
</svg>
