<svg width="17" height="17" viewBox="0 0 17 17" fill="none" xmlns="http://www.w3.org/2000/svg">
<path id="ic_pen" d="M2.42857 0.1875C1.08906 0.1875 0 1.25254 0 2.5625V14.4375C0 15.7475 1.08906 16.8125 2.42857 16.8125H14.5714C15.9109 16.8125 17 15.7475 17 14.4375V2.5625C17 1.25254 15.9109 0.1875 14.5714 0.1875H2.42857ZM12.3629 4.18418L12.9094 4.71855C13.5013 5.29746 13.5013 6.23633 12.9094 6.81895L12.0973 7.61309L9.40312 4.97832L10.2152 4.18418C10.8071 3.60527 11.7672 3.60527 12.3629 4.18418ZM4.54978 9.72461L8.54174 5.8207L11.2359 8.45547L7.24397 12.3557C7.08839 12.5078 6.89487 12.6154 6.67857 12.6674L4.39799 13.224C4.18929 13.276 3.97299 13.2166 3.82121 13.0682C3.66942 12.9197 3.60871 12.7082 3.66183 12.5041L4.23103 10.2738C4.28415 10.066 4.3942 9.87305 4.54978 9.7209V9.72461Z" fill="white"/>
</svg>
