<svg width="17" height="17" viewBox="0 0 17 17" fill="none" xmlns="http://www.w3.org/2000/svg">
<circle cx="8.5" cy="8.5" r="8.5" fill="#60C6FF"/>
<g clip-path="url(#clip0_541_7555)">
<path d="M5.875 4C5.39193 4 5 4.37793 5 4.84375V12.1562C5 12.6221 5.39193 13 5.875 13H7.625V11.5938C7.625 11.1279 8.01693 10.75 8.5 10.75C8.98307 10.75 9.375 11.1279 9.375 11.5938V13H11.125C11.6081 13 12 12.6221 12 12.1562V4.84375C12 4.37793 11.6081 4 11.125 4H5.875ZM6.16667 8.21875C6.16667 8.06406 6.29792 7.9375 6.45833 7.9375H7.04167C7.20208 7.9375 7.33333 8.06406 7.33333 8.21875V8.78125C7.33333 8.93594 7.20208 9.0625 7.04167 9.0625H6.45833C6.29792 9.0625 6.16667 8.93594 6.16667 8.78125V8.21875ZM8.20833 7.9375H8.79167C8.95208 7.9375 9.08333 8.06406 9.08333 8.21875V8.78125C9.08333 8.93594 8.95208 9.0625 8.79167 9.0625H8.20833C8.04792 9.0625 7.91667 8.93594 7.91667 8.78125V8.21875C7.91667 8.06406 8.04792 7.9375 8.20833 7.9375ZM9.66667 8.21875C9.66667 8.06406 9.79792 7.9375 9.95833 7.9375H10.5417C10.7021 7.9375 10.8333 8.06406 10.8333 8.21875V8.78125C10.8333 8.93594 10.7021 9.0625 10.5417 9.0625H9.95833C9.79792 9.0625 9.66667 8.93594 9.66667 8.78125V8.21875ZM6.45833 5.6875H7.04167C7.20208 5.6875 7.33333 5.81406 7.33333 5.96875V6.53125C7.33333 6.68594 7.20208 6.8125 7.04167 6.8125H6.45833C6.29792 6.8125 6.16667 6.68594 6.16667 6.53125V5.96875C6.16667 5.81406 6.29792 5.6875 6.45833 5.6875ZM7.91667 5.96875C7.91667 5.81406 8.04792 5.6875 8.20833 5.6875H8.79167C8.95208 5.6875 9.08333 5.81406 9.08333 5.96875V6.53125C9.08333 6.68594 8.95208 6.8125 8.79167 6.8125H8.20833C8.04792 6.8125 7.91667 6.68594 7.91667 6.53125V5.96875ZM9.95833 5.6875H10.5417C10.7021 5.6875 10.8333 5.81406 10.8333 5.96875V6.53125C10.8333 6.68594 10.7021 6.8125 10.5417 6.8125H9.95833C9.79792 6.8125 9.66667 6.68594 9.66667 6.53125V5.96875C9.66667 5.81406 9.79792 5.6875 9.95833 5.6875Z" fill="#353839"/>
</g>
<defs>
<clipPath id="clip0_541_7555">
<rect width="7" height="9" fill="white" transform="translate(5 4)"/>
</clipPath>
</defs>
</svg>
