<svg width="17" height="17" viewBox="0 0 17 17" fill="none" xmlns="http://www.w3.org/2000/svg">
<circle cx="8.5" cy="8.5" r="8.5" fill="#60C6FF"/>
<path d="M4.84375 5.125C4.37793 5.125 4 5.50293 4 5.96875C4 6.23418 4.1248 6.48379 4.3375 6.64375L8.1625 9.5125C8.36289 9.66191 8.63711 9.66191 8.8375 9.5125L12.6625 6.64375C12.8752 6.48379 13 6.23418 13 5.96875C13 5.50293 12.6221 5.125 12.1562 5.125H4.84375ZM4 7.09375V10.75C4 11.3705 4.50449 11.875 5.125 11.875H11.875C12.4955 11.875 13 11.3705 13 10.75V7.09375L9.175 9.9625C8.77422 10.2631 8.22578 10.2631 7.825 9.9625L4 7.09375Z" fill="#353839"/>
</svg>
